# xmcd
#
# Track frame offsets:
#	150
#	30858
#	44905
#	133060
#	178844
#
# Disc length: 2681 seconds
#
# Revision: 1
# Processed by: cddbd v1.5.2PL0 Copyright (c) Steve Scherf et al.
# Submitted via: audiograbber 1.83.01
#
DISCID=420a7705
DTITLE=Grateful Dead - 73-07-27 Grand Prix Racecourse, Watkins Glen NY
DYEAR=1900
DGENRE=
TTITLE0=Mississippi Half-Step
TTITLE1=Me and My Uncle
TTITLE2=Jam
TTITLE3=Wharf Rat
TTITLE4=Around and Around
EXTD=
EXTT0=
EXTT1=
EXTT2=
EXTT3=
EXTT4=
PLAYORDER=
